<mxfile host="draw.sloththe.dev" modified="2024-06-05T13:52:05.520Z" agent="Mozilla/5.0 (Windows NT 10.0; Win64; x64) AppleWebKit/537.36 (KHTML, like Gecko) Chrome/124.0.0.0 Safari/537.36" etag="V9qwpZ1f_F2eFHfonvYn" version="24.4.13" type="device">
  <diagram name="Page-1" id="XiTTvyvapdO5pUv3SWOy">
    <mxGraphModel dx="1838" dy="1780" grid="1" gridSize="10" guides="1" tooltips="1" connect="1" arrows="1" fold="1" page="1" pageScale="1" pageWidth="1169" pageHeight="827" math="0" shadow="0">
      <root>
        <mxCell id="0" />
        <mxCell id="1" parent="0" />
        <mxCell id="uOjIv8bpnz7_C93zKgDZ-105" value="" style="group" vertex="1" connectable="0" parent="1">
          <mxGeometry x="40" y="-200" width="1000" height="530" as="geometry" />
        </mxCell>
        <mxCell id="uOjIv8bpnz7_C93zKgDZ-28" value="" style="rounded=0;whiteSpace=wrap;html=1;" vertex="1" parent="uOjIv8bpnz7_C93zKgDZ-105">
          <mxGeometry width="1000" height="530" as="geometry" />
        </mxCell>
        <mxCell id="uOjIv8bpnz7_C93zKgDZ-43" style="edgeStyle=orthogonalEdgeStyle;rounded=0;orthogonalLoop=1;jettySize=auto;html=1;entryX=0.5;entryY=1;entryDx=0;entryDy=0;" edge="1" parent="uOjIv8bpnz7_C93zKgDZ-105" source="uOjIv8bpnz7_C93zKgDZ-17" target="uOjIv8bpnz7_C93zKgDZ-19">
          <mxGeometry relative="1" as="geometry">
            <Array as="points">
              <mxPoint x="834" y="235" />
              <mxPoint x="155" y="235" />
            </Array>
          </mxGeometry>
        </mxCell>
        <mxCell id="uOjIv8bpnz7_C93zKgDZ-17" value="" style="sketch=0;points=[[0,0,0],[0.25,0,0],[0.5,0,0],[0.75,0,0],[1,0,0],[0,1,0],[0.25,1,0],[0.5,1,0],[0.75,1,0],[1,1,0],[0,0.25,0],[0,0.5,0],[0,0.75,0],[1,0.25,0],[1,0.5,0],[1,0.75,0]];outlineConnect=0;fontColor=#232F3E;fillColor=#ED7100;strokeColor=#ffffff;dashed=0;verticalLabelPosition=bottom;verticalAlign=top;align=center;html=1;fontSize=12;fontStyle=0;aspect=fixed;shape=mxgraph.aws4.resourceIcon;resIcon=mxgraph.aws4.lambda;" vertex="1" parent="uOjIv8bpnz7_C93zKgDZ-105">
          <mxGeometry x="795" y="126" width="78" height="78" as="geometry" />
        </mxCell>
        <mxCell id="uOjIv8bpnz7_C93zKgDZ-18" value="" style="group" vertex="1" connectable="0" parent="uOjIv8bpnz7_C93zKgDZ-105">
          <mxGeometry x="55" y="115" width="200" height="100" as="geometry" />
        </mxCell>
        <mxCell id="uOjIv8bpnz7_C93zKgDZ-19" value="" style="rounded=1;whiteSpace=wrap;html=1;" vertex="1" parent="uOjIv8bpnz7_C93zKgDZ-18">
          <mxGeometry width="200" height="100" as="geometry" />
        </mxCell>
        <mxCell id="uOjIv8bpnz7_C93zKgDZ-20" value="&lt;h1 style=&quot;margin-top: 0px;&quot;&gt;Create a game&lt;/h1&gt;&lt;p&gt;Initialized by a game host, passes in game configuration&amp;nbsp;&lt;/p&gt;" style="text;html=1;whiteSpace=wrap;overflow=hidden;rounded=0;" vertex="1" parent="uOjIv8bpnz7_C93zKgDZ-18">
          <mxGeometry x="15" y="10" width="170" height="80" as="geometry" />
        </mxCell>
        <mxCell id="uOjIv8bpnz7_C93zKgDZ-35" value="RESTful Request {&lt;div&gt;&lt;span style=&quot;white-space: pre;&quot;&gt;&#x9;&lt;/span&gt;config: GameConfigurationOptions&lt;br&gt;&lt;div&gt;}&lt;/div&gt;&lt;/div&gt;" style="rounded=0;whiteSpace=wrap;html=1;align=left;" vertex="1" parent="uOjIv8bpnz7_C93zKgDZ-105">
          <mxGeometry x="400" y="35" width="230" height="60" as="geometry" />
        </mxCell>
        <mxCell id="uOjIv8bpnz7_C93zKgDZ-39" value="Restful Response {&lt;div&gt;&lt;span style=&quot;white-space: pre;&quot;&gt;&#x9;&lt;/span&gt;config: GameConfigurationOptions,&lt;br&gt;&lt;/div&gt;&lt;div&gt;&lt;span style=&quot;white-space: pre;&quot;&gt;&#x9;&lt;/span&gt;gameID: string&lt;br&gt;&lt;/div&gt;&lt;div&gt;}&lt;/div&gt;" style="rounded=0;whiteSpace=wrap;html=1;align=left;" vertex="1" parent="uOjIv8bpnz7_C93zKgDZ-105">
          <mxGeometry x="400" y="235" width="230" height="60" as="geometry" />
        </mxCell>
        <mxCell id="uOjIv8bpnz7_C93zKgDZ-42" style="edgeStyle=orthogonalEdgeStyle;rounded=0;orthogonalLoop=1;jettySize=auto;html=1;entryX=0.5;entryY=0;entryDx=0;entryDy=0;entryPerimeter=0;" edge="1" parent="uOjIv8bpnz7_C93zKgDZ-105" target="uOjIv8bpnz7_C93zKgDZ-17">
          <mxGeometry relative="1" as="geometry">
            <mxPoint x="145" y="115" as="sourcePoint" />
            <Array as="points">
              <mxPoint x="155" y="115" />
              <mxPoint x="155" y="95" />
              <mxPoint x="834" y="95" />
            </Array>
          </mxGeometry>
        </mxCell>
        <mxCell id="uOjIv8bpnz7_C93zKgDZ-44" value="1" style="edgeLabel;html=1;align=center;verticalAlign=middle;resizable=0;points=[];" vertex="1" connectable="0" parent="uOjIv8bpnz7_C93zKgDZ-42">
          <mxGeometry x="-0.8793" relative="1" as="geometry">
            <mxPoint as="offset" />
          </mxGeometry>
        </mxCell>
        <mxCell id="uOjIv8bpnz7_C93zKgDZ-45" value="Web Socket Request {&lt;div&gt;&lt;span style=&quot;white-space: pre;&quot;&gt;&#x9;&lt;/span&gt;&quot;action&quot;: &quot;game&quot;,&lt;br&gt;&lt;/div&gt;&lt;div&gt;&lt;span style=&quot;white-space: pre;&quot;&gt;&#x9;&lt;/span&gt;&quot;data&quot;: {&lt;br&gt;&lt;/div&gt;&lt;div&gt;&lt;span style=&quot;white-space: pre;&quot;&gt;&lt;span style=&quot;white-space: pre;&quot;&gt;&#x9;&lt;/span&gt;&lt;span style=&quot;white-space: pre;&quot;&gt;&#x9;&lt;/span&gt;&quot;type&quot;: &quot;createGame&quot;,&lt;/span&gt;&lt;/div&gt;&lt;div&gt;&lt;span style=&quot;white-space: pre;&quot;&gt;&lt;span style=&quot;white-space: pre;&quot;&gt;&#x9;&lt;/span&gt;&lt;span style=&quot;white-space: pre;&quot;&gt;&#x9;&lt;/span&gt;&quot;gameID&quot;: string,&lt;/span&gt;&lt;/div&gt;&lt;div&gt;&lt;span style=&quot;white-space: pre;&quot;&gt;&lt;span style=&quot;white-space: pre;&quot;&gt;&#x9;&lt;/span&gt;&lt;span style=&quot;white-space: pre;&quot;&gt;&#x9;&lt;/span&gt;&quot;role&quot;: Host | A | B | C&#x9;&lt;/span&gt;&lt;/div&gt;&lt;div&gt;&lt;span style=&quot;white-space: pre;&quot;&gt;&#x9;&lt;/span&gt;}&lt;br&gt;&lt;/div&gt;&lt;div&gt;}&lt;/div&gt;" style="rounded=0;whiteSpace=wrap;html=1;align=left;" vertex="1" parent="uOjIv8bpnz7_C93zKgDZ-105">
          <mxGeometry x="135" y="355" width="230" height="136" as="geometry" />
        </mxCell>
        <mxCell id="uOjIv8bpnz7_C93zKgDZ-46" style="edgeStyle=orthogonalEdgeStyle;rounded=0;orthogonalLoop=1;jettySize=auto;html=1;exitX=0.25;exitY=1;exitDx=0;exitDy=0;entryX=0;entryY=0.5;entryDx=0;entryDy=0;" edge="1" parent="uOjIv8bpnz7_C93zKgDZ-105" source="uOjIv8bpnz7_C93zKgDZ-19" target="uOjIv8bpnz7_C93zKgDZ-45">
          <mxGeometry relative="1" as="geometry" />
        </mxCell>
        <mxCell id="uOjIv8bpnz7_C93zKgDZ-47" value="2" style="edgeLabel;html=1;align=center;verticalAlign=middle;resizable=0;points=[];" vertex="1" connectable="0" parent="uOjIv8bpnz7_C93zKgDZ-46">
          <mxGeometry x="-0.2325" y="2" relative="1" as="geometry">
            <mxPoint x="-2" y="-82" as="offset" />
          </mxGeometry>
        </mxCell>
        <mxCell id="uOjIv8bpnz7_C93zKgDZ-48" value="&lt;h1 style=&quot;margin-top: 0px;&quot;&gt;Socket Handle&lt;/h1&gt;&lt;p&gt;The web socket server will handle this, adding the following to a table:&lt;/p&gt;&lt;p&gt;&amp;gt;&amp;gt; Web Socket connection ID&lt;br&gt;&amp;gt;&amp;gt; Game ID&lt;br&gt;&amp;gt;&amp;gt; Role&lt;/p&gt;&lt;p&gt;We need this so we can identify that the user with this connection ID is the game host, so they will be running the game.&lt;/p&gt;" style="text;html=1;whiteSpace=wrap;overflow=hidden;rounded=0;" vertex="1" parent="uOjIv8bpnz7_C93zKgDZ-105">
          <mxGeometry x="385" y="342" width="585" height="162" as="geometry" />
        </mxCell>
        <mxCell id="uOjIv8bpnz7_C93zKgDZ-106" value="" style="group" vertex="1" connectable="0" parent="1">
          <mxGeometry x="40" y="400" width="1000" height="530" as="geometry" />
        </mxCell>
        <mxCell id="uOjIv8bpnz7_C93zKgDZ-49" value="" style="rounded=0;whiteSpace=wrap;html=1;" vertex="1" parent="uOjIv8bpnz7_C93zKgDZ-106">
          <mxGeometry width="1000" height="530" as="geometry" />
        </mxCell>
        <mxCell id="uOjIv8bpnz7_C93zKgDZ-50" style="edgeStyle=orthogonalEdgeStyle;rounded=0;orthogonalLoop=1;jettySize=auto;html=1;entryX=0.5;entryY=1;entryDx=0;entryDy=0;" edge="1" parent="uOjIv8bpnz7_C93zKgDZ-106" source="uOjIv8bpnz7_C93zKgDZ-51" target="uOjIv8bpnz7_C93zKgDZ-53">
          <mxGeometry relative="1" as="geometry">
            <Array as="points">
              <mxPoint x="819" y="240" />
              <mxPoint x="140" y="240" />
            </Array>
          </mxGeometry>
        </mxCell>
        <mxCell id="uOjIv8bpnz7_C93zKgDZ-51" value="" style="sketch=0;points=[[0,0,0],[0.25,0,0],[0.5,0,0],[0.75,0,0],[1,0,0],[0,1,0],[0.25,1,0],[0.5,1,0],[0.75,1,0],[1,1,0],[0,0.25,0],[0,0.5,0],[0,0.75,0],[1,0.25,0],[1,0.5,0],[1,0.75,0]];outlineConnect=0;fontColor=#232F3E;fillColor=#ED7100;strokeColor=#ffffff;dashed=0;verticalLabelPosition=bottom;verticalAlign=top;align=center;html=1;fontSize=12;fontStyle=0;aspect=fixed;shape=mxgraph.aws4.resourceIcon;resIcon=mxgraph.aws4.lambda;" vertex="1" parent="uOjIv8bpnz7_C93zKgDZ-106">
          <mxGeometry x="780" y="131" width="78" height="78" as="geometry" />
        </mxCell>
        <mxCell id="uOjIv8bpnz7_C93zKgDZ-52" value="" style="group" vertex="1" connectable="0" parent="uOjIv8bpnz7_C93zKgDZ-106">
          <mxGeometry x="40" y="120" width="200" height="100" as="geometry" />
        </mxCell>
        <mxCell id="uOjIv8bpnz7_C93zKgDZ-53" value="" style="rounded=1;whiteSpace=wrap;html=1;" vertex="1" parent="uOjIv8bpnz7_C93zKgDZ-52">
          <mxGeometry width="200" height="100" as="geometry" />
        </mxCell>
        <mxCell id="uOjIv8bpnz7_C93zKgDZ-54" value="&lt;h1 style=&quot;margin-top: 0px;&quot;&gt;&lt;span style=&quot;background-color: initial;&quot;&gt;Join a Game&lt;br&gt;&lt;/span&gt;&lt;span style=&quot;background-color: initial; font-size: 12px; font-weight: normal;&quot;&gt;A player wanting to join a game&lt;/span&gt;&lt;br&gt;&lt;/h1&gt;" style="text;html=1;whiteSpace=wrap;overflow=hidden;rounded=0;" vertex="1" parent="uOjIv8bpnz7_C93zKgDZ-52">
          <mxGeometry x="15" y="10" width="170" height="80" as="geometry" />
        </mxCell>
        <mxCell id="uOjIv8bpnz7_C93zKgDZ-55" value="RESTful Request {&lt;div&gt;&lt;span style=&quot;white-space: pre;&quot;&gt;&#x9;&lt;/span&gt;playerName: string,&lt;/div&gt;&lt;div&gt;&lt;span style=&quot;white-space: pre;&quot;&gt;&#x9;&lt;/span&gt;gameID: string&lt;br&gt;&lt;div&gt;}&lt;/div&gt;&lt;/div&gt;" style="rounded=0;whiteSpace=wrap;html=1;align=left;" vertex="1" parent="uOjIv8bpnz7_C93zKgDZ-106">
          <mxGeometry x="385" y="40" width="230" height="60" as="geometry" />
        </mxCell>
        <mxCell id="uOjIv8bpnz7_C93zKgDZ-56" value="Restful Response {&lt;div&gt;&lt;span style=&quot;white-space: pre;&quot;&gt;&#x9;&lt;/span&gt;gameID: string,&lt;/div&gt;&lt;div&gt;&lt;span style=&quot;white-space: pre;&quot;&gt;&#x9;&lt;/span&gt;playerData: PlayerOptions&lt;br&gt;&lt;/div&gt;&lt;div&gt;}&lt;/div&gt;" style="rounded=0;whiteSpace=wrap;html=1;align=left;" vertex="1" parent="uOjIv8bpnz7_C93zKgDZ-106">
          <mxGeometry x="385" y="240" width="230" height="60" as="geometry" />
        </mxCell>
        <mxCell id="uOjIv8bpnz7_C93zKgDZ-57" style="edgeStyle=orthogonalEdgeStyle;rounded=0;orthogonalLoop=1;jettySize=auto;html=1;entryX=0.5;entryY=0;entryDx=0;entryDy=0;entryPerimeter=0;" edge="1" parent="uOjIv8bpnz7_C93zKgDZ-106" target="uOjIv8bpnz7_C93zKgDZ-51">
          <mxGeometry relative="1" as="geometry">
            <mxPoint x="130" y="120" as="sourcePoint" />
            <Array as="points">
              <mxPoint x="140" y="120" />
              <mxPoint x="140" y="100" />
              <mxPoint x="819" y="100" />
            </Array>
          </mxGeometry>
        </mxCell>
        <mxCell id="uOjIv8bpnz7_C93zKgDZ-58" value="1" style="edgeLabel;html=1;align=center;verticalAlign=middle;resizable=0;points=[];" vertex="1" connectable="0" parent="uOjIv8bpnz7_C93zKgDZ-57">
          <mxGeometry x="-0.8793" relative="1" as="geometry">
            <mxPoint as="offset" />
          </mxGeometry>
        </mxCell>
        <mxCell id="uOjIv8bpnz7_C93zKgDZ-59" value="Web Socket Request {&lt;div&gt;&lt;span style=&quot;white-space: pre;&quot;&gt;&#x9;&lt;/span&gt;&quot;action&quot;: &quot;game&quot;,&lt;br&gt;&lt;/div&gt;&lt;div&gt;&lt;span style=&quot;white-space: pre;&quot;&gt;&#x9;&lt;/span&gt;&quot;data&quot;: {&lt;br&gt;&lt;/div&gt;&lt;div&gt;&lt;span style=&quot;white-space: pre;&quot;&gt;&lt;span style=&quot;white-space: pre;&quot;&gt;&#x9;&lt;/span&gt;&lt;span style=&quot;white-space: pre;&quot;&gt;&#x9;&lt;/span&gt;&quot;type&quot;: &quot;joinGame&quot;,&lt;/span&gt;&lt;/div&gt;&lt;div&gt;&lt;span style=&quot;white-space: pre;&quot;&gt;&lt;span style=&quot;white-space: pre;&quot;&gt;&#x9;&lt;/span&gt;&lt;span style=&quot;white-space: pre;&quot;&gt;&#x9;&lt;/span&gt;&quot;gameID&quot;: string,&lt;br/&gt;&lt;span style=&quot;white-space: pre;&quot;&gt;&#x9;&lt;/span&gt;&lt;span style=&quot;white-space: pre;&quot;&gt;&#x9;&lt;/span&gt;&quot;playerID&quot;: string,&lt;br/&gt;&lt;/span&gt;&lt;/div&gt;&lt;div&gt;&lt;span style=&quot;white-space: pre;&quot;&gt;&lt;span style=&quot;white-space: pre;&quot;&gt;&#x9;&lt;/span&gt;&lt;span style=&quot;white-space: pre;&quot;&gt;&#x9;&lt;/span&gt;&quot;role&quot;: A | B | C&#x9;&lt;/span&gt;&lt;/div&gt;&lt;div&gt;&lt;span style=&quot;white-space: pre;&quot;&gt;&#x9;&lt;/span&gt;}&lt;br&gt;&lt;/div&gt;&lt;div&gt;}&lt;/div&gt;" style="rounded=0;whiteSpace=wrap;html=1;align=left;" vertex="1" parent="uOjIv8bpnz7_C93zKgDZ-106">
          <mxGeometry x="120" y="360" width="230" height="136" as="geometry" />
        </mxCell>
        <mxCell id="uOjIv8bpnz7_C93zKgDZ-60" style="edgeStyle=orthogonalEdgeStyle;rounded=0;orthogonalLoop=1;jettySize=auto;html=1;exitX=0.25;exitY=1;exitDx=0;exitDy=0;entryX=0;entryY=0.5;entryDx=0;entryDy=0;" edge="1" parent="uOjIv8bpnz7_C93zKgDZ-106" source="uOjIv8bpnz7_C93zKgDZ-53" target="uOjIv8bpnz7_C93zKgDZ-59">
          <mxGeometry relative="1" as="geometry" />
        </mxCell>
        <mxCell id="uOjIv8bpnz7_C93zKgDZ-61" value="2" style="edgeLabel;html=1;align=center;verticalAlign=middle;resizable=0;points=[];" vertex="1" connectable="0" parent="uOjIv8bpnz7_C93zKgDZ-60">
          <mxGeometry x="-0.2325" y="2" relative="1" as="geometry">
            <mxPoint x="-2" y="-82" as="offset" />
          </mxGeometry>
        </mxCell>
        <mxCell id="uOjIv8bpnz7_C93zKgDZ-62" value="&lt;h1 style=&quot;margin-top: 0px;&quot;&gt;Socket Handle&lt;/h1&gt;&lt;p&gt;The web socket server will handle this, adding the following to a table:&lt;/p&gt;&lt;p&gt;&amp;gt;&amp;gt; Web Socket connection ID&lt;br&gt;&amp;gt;&amp;gt; Game ID&lt;br&gt;&amp;gt;&amp;gt; Player ID&lt;br&gt;&amp;gt;&amp;gt; Role&lt;/p&gt;&lt;p&gt;We need this to identify who the user is and what their role in the game is.&lt;/p&gt;" style="text;html=1;whiteSpace=wrap;overflow=hidden;rounded=0;" vertex="1" parent="uOjIv8bpnz7_C93zKgDZ-106">
          <mxGeometry x="370" y="347" width="585" height="162" as="geometry" />
        </mxCell>
        <mxCell id="uOjIv8bpnz7_C93zKgDZ-107" value="" style="group" vertex="1" connectable="0" parent="1">
          <mxGeometry x="40" y="1000" width="1000" height="300" as="geometry" />
        </mxCell>
        <mxCell id="uOjIv8bpnz7_C93zKgDZ-63" value="" style="rounded=0;whiteSpace=wrap;html=1;" vertex="1" parent="uOjIv8bpnz7_C93zKgDZ-107">
          <mxGeometry width="1000" height="300" as="geometry" />
        </mxCell>
        <mxCell id="uOjIv8bpnz7_C93zKgDZ-66" value="" style="group" vertex="1" connectable="0" parent="uOjIv8bpnz7_C93zKgDZ-107">
          <mxGeometry x="30" y="50" width="200" height="130" as="geometry" />
        </mxCell>
        <mxCell id="uOjIv8bpnz7_C93zKgDZ-67" value="" style="rounded=1;whiteSpace=wrap;html=1;" vertex="1" parent="uOjIv8bpnz7_C93zKgDZ-66">
          <mxGeometry width="200" height="130" as="geometry" />
        </mxCell>
        <mxCell id="uOjIv8bpnz7_C93zKgDZ-68" value="&lt;h1 style=&quot;margin-top: 0px;&quot;&gt;&lt;span style=&quot;background-color: initial;&quot;&gt;Start a Game&lt;br&gt;&lt;/span&gt;&lt;span style=&quot;background-color: initial; font-size: 12px; font-weight: normal;&quot;&gt;Game host wanting to start a game&lt;/span&gt;&lt;br&gt;&lt;/h1&gt;" style="text;html=1;whiteSpace=wrap;overflow=hidden;rounded=0;" vertex="1" parent="uOjIv8bpnz7_C93zKgDZ-66">
          <mxGeometry x="15" y="10" width="170" height="110" as="geometry" />
        </mxCell>
        <mxCell id="uOjIv8bpnz7_C93zKgDZ-73" value="Web Socket Request {&lt;div&gt;&lt;span style=&quot;white-space: pre;&quot;&gt;&#x9;&lt;/span&gt;&quot;action&quot;: &quot;game&quot;,&lt;br&gt;&lt;/div&gt;&lt;div&gt;&lt;span style=&quot;white-space: pre;&quot;&gt;&#x9;&lt;/span&gt;&quot;data&quot;: {&lt;br&gt;&lt;/div&gt;&lt;div&gt;&lt;span style=&quot;white-space: pre;&quot;&gt;&#x9;&lt;/span&gt;&lt;span style=&quot;white-space: pre;&quot;&gt;&#x9;&lt;/span&gt;&quot;type&quot;: &quot;startGame&quot;,&lt;br&gt;&lt;/div&gt;&lt;div&gt;&lt;span style=&quot;white-space: pre;&quot;&gt;&#x9;&lt;/span&gt;&lt;span style=&quot;white-space: pre;&quot;&gt;&#x9;&lt;/span&gt;&quot;gameID&quot;: string&lt;br&gt;&lt;/div&gt;&lt;div&gt;&lt;span style=&quot;white-space: pre;&quot;&gt;&#x9;&lt;/span&gt;}&lt;br&gt;&lt;/div&gt;&lt;div&gt;}&lt;/div&gt;" style="rounded=0;whiteSpace=wrap;html=1;align=left;" vertex="1" parent="uOjIv8bpnz7_C93zKgDZ-107">
          <mxGeometry x="360" y="47" width="230" height="136" as="geometry" />
        </mxCell>
        <mxCell id="uOjIv8bpnz7_C93zKgDZ-76" value="&lt;h1 style=&quot;margin-top: 0px;&quot;&gt;Socket Handle&lt;/h1&gt;&lt;div&gt;The web-socket server will handle this by broadcasting a message to all connected users that the game is about to start and they should get ready.&lt;/div&gt;" style="text;html=1;whiteSpace=wrap;overflow=hidden;rounded=0;" vertex="1" parent="uOjIv8bpnz7_C93zKgDZ-107">
          <mxGeometry x="360" y="200" width="585" height="100" as="geometry" />
        </mxCell>
        <mxCell id="uOjIv8bpnz7_C93zKgDZ-77" style="edgeStyle=orthogonalEdgeStyle;rounded=0;orthogonalLoop=1;jettySize=auto;html=1;exitX=1;exitY=0.5;exitDx=0;exitDy=0;entryX=0;entryY=0.5;entryDx=0;entryDy=0;" edge="1" parent="uOjIv8bpnz7_C93zKgDZ-107" source="uOjIv8bpnz7_C93zKgDZ-67" target="uOjIv8bpnz7_C93zKgDZ-73">
          <mxGeometry relative="1" as="geometry" />
        </mxCell>
        <mxCell id="uOjIv8bpnz7_C93zKgDZ-108" value="" style="group" vertex="1" connectable="0" parent="1">
          <mxGeometry x="40" y="1360" width="1020" height="338.5" as="geometry" />
        </mxCell>
        <mxCell id="uOjIv8bpnz7_C93zKgDZ-109" value="" style="rounded=0;whiteSpace=wrap;html=1;" vertex="1" parent="uOjIv8bpnz7_C93zKgDZ-108">
          <mxGeometry width="1000" height="300" as="geometry" />
        </mxCell>
        <mxCell id="uOjIv8bpnz7_C93zKgDZ-110" value="" style="group" vertex="1" connectable="0" parent="uOjIv8bpnz7_C93zKgDZ-108">
          <mxGeometry x="30" y="50" width="200" height="130" as="geometry" />
        </mxCell>
        <mxCell id="uOjIv8bpnz7_C93zKgDZ-111" value="" style="rounded=1;whiteSpace=wrap;html=1;" vertex="1" parent="uOjIv8bpnz7_C93zKgDZ-110">
          <mxGeometry width="200" height="130" as="geometry" />
        </mxCell>
        <mxCell id="uOjIv8bpnz7_C93zKgDZ-112" value="&lt;h1 style=&quot;margin-top: 0px;&quot;&gt;&lt;span style=&quot;background-color: initial;&quot;&gt;Start a round&lt;br&gt;&lt;/span&gt;&lt;span style=&quot;background-color: initial; font-size: 12px; font-weight: normal;&quot;&gt;Game host initiating the round starting&lt;/span&gt;&lt;br&gt;&lt;/h1&gt;" style="text;html=1;whiteSpace=wrap;overflow=hidden;rounded=0;" vertex="1" parent="uOjIv8bpnz7_C93zKgDZ-110">
          <mxGeometry x="15" y="10" width="170" height="110" as="geometry" />
        </mxCell>
        <mxCell id="uOjIv8bpnz7_C93zKgDZ-113" value="Web Socket Request {&lt;div&gt;&lt;span style=&quot;white-space: pre;&quot;&gt;&#x9;&lt;/span&gt;&quot;action&quot;: &quot;game&quot;,&lt;br&gt;&lt;/div&gt;&lt;div&gt;&lt;span style=&quot;white-space: pre;&quot;&gt;&#x9;&lt;/span&gt;&quot;data&quot;: {&lt;br&gt;&lt;/div&gt;&lt;div&gt;&lt;span style=&quot;white-space: pre;&quot;&gt;&#x9;&lt;/span&gt;&lt;span style=&quot;white-space: pre;&quot;&gt;&#x9;&lt;/span&gt;&quot;type&quot;: &quot;startRound&quot;,&lt;br&gt;&lt;/div&gt;&lt;div&gt;&lt;span style=&quot;white-space: pre;&quot;&gt;&#x9;&lt;/span&gt;&lt;span style=&quot;white-space: pre;&quot;&gt;&#x9;&lt;/span&gt;&quot;gameID&quot;: string,&lt;br&gt;&lt;/div&gt;&lt;div&gt;&lt;span style=&quot;white-space: pre;&quot;&gt;&#x9;&lt;/span&gt;&lt;span style=&quot;white-space: pre;&quot;&gt;&#x9;&lt;/span&gt;&quot;roundNumber&quot;: RoundNumber,&lt;br&gt;&lt;span style=&quot;white-space: pre;&quot;&gt;&#x9;&lt;/span&gt;&lt;span style=&quot;white-space: pre;&quot;&gt;&#x9;&lt;/span&gt;&quot;startTime&quot;: timestamp,&lt;br&gt;&lt;span style=&quot;white-space: pre;&quot;&gt;&#x9;&lt;/span&gt;&lt;span style=&quot;white-space: pre;&quot;&gt;&#x9;&lt;/span&gt;&quot;duration&quot;: seconds&lt;br&gt;&lt;/div&gt;&lt;div&gt;&lt;span style=&quot;white-space: pre;&quot;&gt;&#x9;&lt;/span&gt;}&lt;br&gt;&lt;/div&gt;&lt;div&gt;}&lt;/div&gt;" style="rounded=0;whiteSpace=wrap;html=1;align=left;" vertex="1" parent="uOjIv8bpnz7_C93zKgDZ-108">
          <mxGeometry x="360" y="38.5" width="230" height="153" as="geometry" />
        </mxCell>
        <mxCell id="uOjIv8bpnz7_C93zKgDZ-114" value="&lt;h1 style=&quot;margin-top: 0px;&quot;&gt;Socket Handle&lt;/h1&gt;&lt;div&gt;Will broadcast to all players that the round is starting.&lt;/div&gt;" style="text;html=1;whiteSpace=wrap;overflow=hidden;rounded=0;" vertex="1" parent="uOjIv8bpnz7_C93zKgDZ-108">
          <mxGeometry x="360" y="200" width="585" height="100" as="geometry" />
        </mxCell>
        <mxCell id="uOjIv8bpnz7_C93zKgDZ-115" style="edgeStyle=orthogonalEdgeStyle;rounded=0;orthogonalLoop=1;jettySize=auto;html=1;exitX=1;exitY=0.5;exitDx=0;exitDy=0;entryX=0;entryY=0.5;entryDx=0;entryDy=0;" edge="1" parent="uOjIv8bpnz7_C93zKgDZ-108" source="uOjIv8bpnz7_C93zKgDZ-111" target="uOjIv8bpnz7_C93zKgDZ-113">
          <mxGeometry relative="1" as="geometry" />
        </mxCell>
        <mxCell id="uOjIv8bpnz7_C93zKgDZ-120" style="edgeStyle=orthogonalEdgeStyle;rounded=0;orthogonalLoop=1;jettySize=auto;html=1;startArrow=classic;startFill=1;" edge="1" parent="uOjIv8bpnz7_C93zKgDZ-108" source="uOjIv8bpnz7_C93zKgDZ-116" target="uOjIv8bpnz7_C93zKgDZ-119">
          <mxGeometry relative="1" as="geometry">
            <Array as="points">
              <mxPoint x="869" y="240" />
            </Array>
          </mxGeometry>
        </mxCell>
        <mxCell id="uOjIv8bpnz7_C93zKgDZ-116" value="" style="sketch=0;points=[[0,0,0],[0.25,0,0],[0.5,0,0],[0.75,0,0],[1,0,0],[0,1,0],[0.25,1,0],[0.5,1,0],[0.75,1,0],[1,1,0],[0,0.25,0],[0,0.5,0],[0,0.75,0],[1,0.25,0],[1,0.5,0],[1,0.75,0]];outlineConnect=0;fontColor=#232F3E;fillColor=#ED7100;strokeColor=#ffffff;dashed=0;verticalLabelPosition=bottom;verticalAlign=top;align=center;html=1;fontSize=12;fontStyle=0;aspect=fixed;shape=mxgraph.aws4.resourceIcon;resIcon=mxgraph.aws4.lambda;" vertex="1" parent="uOjIv8bpnz7_C93zKgDZ-108">
          <mxGeometry x="830" y="76" width="78" height="78" as="geometry" />
        </mxCell>
        <mxCell id="uOjIv8bpnz7_C93zKgDZ-117" style="edgeStyle=orthogonalEdgeStyle;rounded=0;orthogonalLoop=1;jettySize=auto;html=1;entryX=0;entryY=0.5;entryDx=0;entryDy=0;entryPerimeter=0;" edge="1" parent="uOjIv8bpnz7_C93zKgDZ-108" source="uOjIv8bpnz7_C93zKgDZ-113" target="uOjIv8bpnz7_C93zKgDZ-116">
          <mxGeometry relative="1" as="geometry" />
        </mxCell>
        <mxCell id="uOjIv8bpnz7_C93zKgDZ-118" value="if roundNumber &amp;gt; 0&lt;br&gt;&lt;span style=&quot;white-space: pre;&quot;&gt;&#x9;&lt;/span&gt;processData and &lt;br&gt;&lt;span style=&quot;white-space: pre;&quot;&gt;&#x9;&lt;/span&gt;batch update DynamoDB" style="edgeLabel;html=1;align=left;verticalAlign=middle;resizable=0;points=[];" vertex="1" connectable="0" parent="uOjIv8bpnz7_C93zKgDZ-117">
          <mxGeometry x="0.3069" relative="1" as="geometry">
            <mxPoint x="-117" as="offset" />
          </mxGeometry>
        </mxCell>
        <mxCell id="uOjIv8bpnz7_C93zKgDZ-119" value="" style="outlineConnect=0;dashed=0;verticalLabelPosition=bottom;verticalAlign=top;align=center;html=1;shape=mxgraph.aws3.elasticache;fillColor=#2E73B8;gradientColor=none;" vertex="1" parent="uOjIv8bpnz7_C93zKgDZ-108">
          <mxGeometry x="762.5" y="197" width="67.5" height="81" as="geometry" />
        </mxCell>
        <mxCell id="uOjIv8bpnz7_C93zKgDZ-121" value="" style="sketch=0;points=[[0,0,0],[0.25,0,0],[0.5,0,0],[0.75,0,0],[1,0,0],[0,1,0],[0.25,1,0],[0.5,1,0],[0.75,1,0],[1,1,0],[0,0.25,0],[0,0.5,0],[0,0.75,0],[1,0.25,0],[1,0.5,0],[1,0.75,0]];outlineConnect=0;fontColor=#232F3E;fillColor=#C925D1;strokeColor=#ffffff;dashed=0;verticalLabelPosition=bottom;verticalAlign=top;align=center;html=1;fontSize=12;fontStyle=0;aspect=fixed;shape=mxgraph.aws4.resourceIcon;resIcon=mxgraph.aws4.dynamodb;" vertex="1" parent="uOjIv8bpnz7_C93zKgDZ-108">
          <mxGeometry x="908" y="200" width="78" height="78" as="geometry" />
        </mxCell>
        <mxCell id="uOjIv8bpnz7_C93zKgDZ-122" style="edgeStyle=orthogonalEdgeStyle;rounded=0;orthogonalLoop=1;jettySize=auto;html=1;entryX=0.5;entryY=1;entryDx=0;entryDy=0;entryPerimeter=0;startArrow=classic;startFill=1;" edge="1" parent="uOjIv8bpnz7_C93zKgDZ-108" source="uOjIv8bpnz7_C93zKgDZ-121" target="uOjIv8bpnz7_C93zKgDZ-116">
          <mxGeometry relative="1" as="geometry">
            <Array as="points">
              <mxPoint x="869" y="240" />
            </Array>
          </mxGeometry>
        </mxCell>
        <mxCell id="uOjIv8bpnz7_C93zKgDZ-124" value="" style="rounded=0;whiteSpace=wrap;html=1;" vertex="1" parent="1">
          <mxGeometry x="40" y="1720" width="920" height="440" as="geometry" />
        </mxCell>
        <mxCell id="uOjIv8bpnz7_C93zKgDZ-125" value="" style="group" vertex="1" connectable="0" parent="1">
          <mxGeometry x="70" y="1770" width="200" height="130" as="geometry" />
        </mxCell>
        <mxCell id="uOjIv8bpnz7_C93zKgDZ-126" value="" style="rounded=1;whiteSpace=wrap;html=1;" vertex="1" parent="uOjIv8bpnz7_C93zKgDZ-125">
          <mxGeometry width="200" height="130" as="geometry" />
        </mxCell>
        <mxCell id="uOjIv8bpnz7_C93zKgDZ-127" value="&lt;h1 style=&quot;margin-top: 0px;&quot;&gt;&lt;span style=&quot;background-color: initial;&quot;&gt;End a round&lt;br&gt;&lt;/span&gt;&lt;span style=&quot;background-color: initial; font-size: 12px; font-weight: normal;&quot;&gt;Game host initiating the round starting&lt;/span&gt;&lt;br&gt;&lt;/h1&gt;" style="text;html=1;whiteSpace=wrap;overflow=hidden;rounded=0;" vertex="1" parent="uOjIv8bpnz7_C93zKgDZ-125">
          <mxGeometry x="15" y="10" width="170" height="110" as="geometry" />
        </mxCell>
        <mxCell id="uOjIv8bpnz7_C93zKgDZ-128" value="Web Socket Request {&lt;div&gt;&lt;span style=&quot;white-space: pre;&quot;&gt;&#x9;&lt;/span&gt;&quot;action&quot;: &quot;game&quot;,&lt;br&gt;&lt;/div&gt;&lt;div&gt;&lt;span style=&quot;white-space: pre;&quot;&gt;&#x9;&lt;/span&gt;&quot;data&quot;: {&lt;br&gt;&lt;/div&gt;&lt;div&gt;&lt;span style=&quot;white-space: pre;&quot;&gt;&#x9;&lt;/span&gt;&lt;span style=&quot;white-space: pre;&quot;&gt;&#x9;&lt;/span&gt;&quot;type&quot;: &quot;endRound&quot;,&lt;br&gt;&lt;/div&gt;&lt;div&gt;&lt;span style=&quot;white-space: pre;&quot;&gt;&#x9;&lt;/span&gt;&lt;span style=&quot;white-space: pre;&quot;&gt;&#x9;&lt;/span&gt;&quot;gameID&quot;: GameID&lt;br&gt;&lt;/div&gt;&lt;div&gt;&lt;span style=&quot;white-space: pre;&quot;&gt;&#x9;&lt;/span&gt;}&lt;br&gt;&lt;/div&gt;&lt;div&gt;}&lt;/div&gt;" style="rounded=0;whiteSpace=wrap;html=1;align=left;" vertex="1" parent="1">
          <mxGeometry x="400" y="1779.25" width="230" height="111.5" as="geometry" />
        </mxCell>
        <mxCell id="uOjIv8bpnz7_C93zKgDZ-130" style="edgeStyle=orthogonalEdgeStyle;rounded=0;orthogonalLoop=1;jettySize=auto;html=1;exitX=1;exitY=0.5;exitDx=0;exitDy=0;entryX=0;entryY=0.5;entryDx=0;entryDy=0;" edge="1" parent="1" source="uOjIv8bpnz7_C93zKgDZ-126" target="uOjIv8bpnz7_C93zKgDZ-128">
          <mxGeometry relative="1" as="geometry" />
        </mxCell>
        <mxCell id="uOjIv8bpnz7_C93zKgDZ-133" style="edgeStyle=orthogonalEdgeStyle;rounded=0;orthogonalLoop=1;jettySize=auto;html=1;" edge="1" parent="1" source="uOjIv8bpnz7_C93zKgDZ-128" target="uOjIv8bpnz7_C93zKgDZ-138">
          <mxGeometry relative="1" as="geometry">
            <mxPoint x="810" y="1835" as="targetPoint" />
          </mxGeometry>
        </mxCell>
        <mxCell id="uOjIv8bpnz7_C93zKgDZ-156" style="edgeStyle=orthogonalEdgeStyle;rounded=0;orthogonalLoop=1;jettySize=auto;html=1;" edge="1" parent="1" source="uOjIv8bpnz7_C93zKgDZ-138" target="uOjIv8bpnz7_C93zKgDZ-155">
          <mxGeometry relative="1" as="geometry">
            <Array as="points">
              <mxPoint x="883" y="2027" />
            </Array>
          </mxGeometry>
        </mxCell>
        <mxCell id="uOjIv8bpnz7_C93zKgDZ-138" value="Game Players" style="shape=umlActor;verticalLabelPosition=bottom;verticalAlign=top;html=1;outlineConnect=0;" vertex="1" parent="1">
          <mxGeometry x="868" y="1900" width="30" height="60" as="geometry" />
        </mxCell>
        <mxCell id="uOjIv8bpnz7_C93zKgDZ-154" value="" style="outlineConnect=0;dashed=0;verticalLabelPosition=bottom;verticalAlign=top;align=center;html=1;shape=mxgraph.aws3.elasticache;fillColor=#2E73B8;gradientColor=none;" vertex="1" parent="1">
          <mxGeometry x="180" y="1986" width="67.5" height="81" as="geometry" />
        </mxCell>
        <mxCell id="uOjIv8bpnz7_C93zKgDZ-157" style="edgeStyle=orthogonalEdgeStyle;rounded=0;orthogonalLoop=1;jettySize=auto;html=1;" edge="1" parent="1" source="uOjIv8bpnz7_C93zKgDZ-155" target="uOjIv8bpnz7_C93zKgDZ-154">
          <mxGeometry relative="1" as="geometry" />
        </mxCell>
        <mxCell id="uOjIv8bpnz7_C93zKgDZ-155" value="Web Socket Request {&lt;div&gt;&lt;span style=&quot;white-space: pre;&quot;&gt;&#x9;&lt;/span&gt;&quot;action&quot;: &quot;game&quot;,&lt;br&gt;&lt;/div&gt;&lt;div&gt;&lt;span style=&quot;white-space: pre;&quot;&gt;&#x9;&lt;/span&gt;&quot;data&quot;: {&lt;br&gt;&lt;/div&gt;&lt;div&gt;&lt;span style=&quot;white-space: pre;&quot;&gt;&#x9;&lt;/span&gt;&lt;span style=&quot;white-space: pre;&quot;&gt;&#x9;&lt;/span&gt;&quot;type&quot;: &quot;roundEnd&quot;,&lt;br&gt;&lt;/div&gt;&lt;div&gt;&lt;span style=&quot;white-space: pre;&quot;&gt;&#x9;&lt;/span&gt;&lt;span style=&quot;white-space: pre;&quot;&gt;&#x9;&lt;/span&gt;&quot;gameID&quot;: GameID,&lt;br&gt;&lt;/div&gt;&lt;div&gt;&lt;span style=&quot;white-space: pre;&quot;&gt;&#x9;&lt;/span&gt;&lt;span style=&quot;white-space: pre;&quot;&gt;&#x9;&lt;/span&gt;&quot;round&quot;: CurrentRoundNumber,&lt;br&gt;&lt;span style=&quot;white-space: pre;&quot;&gt;&#x9;&lt;/span&gt;&lt;span style=&quot;white-space: pre;&quot;&gt;&#x9;&lt;/span&gt;&quot;playerData&quot;: PlayerData&lt;br&gt;&lt;/div&gt;&lt;div&gt;&lt;span style=&quot;white-space: pre;&quot;&gt;&#x9;&lt;/span&gt;}&lt;br&gt;&lt;/div&gt;&lt;div&gt;}&lt;/div&gt;" style="rounded=0;whiteSpace=wrap;html=1;align=left;" vertex="1" parent="1">
          <mxGeometry x="400" y="1950" width="230" height="153" as="geometry" />
        </mxCell>
        <mxCell id="uOjIv8bpnz7_C93zKgDZ-102" value="" style="rounded=0;whiteSpace=wrap;html=1;" vertex="1" parent="1">
          <mxGeometry x="40" y="-790" width="960" height="560" as="geometry" />
        </mxCell>
        <mxCell id="uOjIv8bpnz7_C93zKgDZ-78" value="Client (NextJS)" style="shape=umlActor;verticalLabelPosition=bottom;verticalAlign=top;html=1;outlineConnect=0;" vertex="1" parent="1">
          <mxGeometry x="80" y="-671" width="30" height="60" as="geometry" />
        </mxCell>
        <mxCell id="uOjIv8bpnz7_C93zKgDZ-79" value="RESTful API" style="sketch=0;points=[[0,0,0],[0.25,0,0],[0.5,0,0],[0.75,0,0],[1,0,0],[0,1,0],[0.25,1,0],[0.5,1,0],[0.75,1,0],[1,1,0],[0,0.25,0],[0,0.5,0],[0,0.75,0],[1,0.25,0],[1,0.5,0],[1,0.75,0]];outlineConnect=0;fontColor=#232F3E;fillColor=#8C4FFF;strokeColor=#ffffff;dashed=0;verticalLabelPosition=bottom;verticalAlign=top;align=center;html=1;fontSize=12;fontStyle=0;aspect=fixed;shape=mxgraph.aws4.resourceIcon;resIcon=mxgraph.aws4.api_gateway;" vertex="1" parent="1">
          <mxGeometry x="320" y="-760" width="78" height="78" as="geometry" />
        </mxCell>
        <mxCell id="uOjIv8bpnz7_C93zKgDZ-80" value="Web Socket" style="sketch=0;points=[[0,0,0],[0.25,0,0],[0.5,0,0],[0.75,0,0],[1,0,0],[0,1,0],[0.25,1,0],[0.5,1,0],[0.75,1,0],[1,1,0],[0,0.25,0],[0,0.5,0],[0,0.75,0],[1,0.25,0],[1,0.5,0],[1,0.75,0]];outlineConnect=0;fontColor=#232F3E;fillColor=#8C4FFF;strokeColor=#ffffff;dashed=0;verticalLabelPosition=bottom;verticalAlign=top;align=center;html=1;fontSize=12;fontStyle=0;aspect=fixed;shape=mxgraph.aws4.resourceIcon;resIcon=mxgraph.aws4.api_gateway;" vertex="1" parent="1">
          <mxGeometry x="320" y="-600" width="78" height="78" as="geometry" />
        </mxCell>
        <mxCell id="uOjIv8bpnz7_C93zKgDZ-81" style="edgeStyle=orthogonalEdgeStyle;rounded=0;orthogonalLoop=1;jettySize=auto;html=1;entryX=0;entryY=0.5;entryDx=0;entryDy=0;entryPerimeter=0;" edge="1" parent="1" source="uOjIv8bpnz7_C93zKgDZ-78" target="uOjIv8bpnz7_C93zKgDZ-79">
          <mxGeometry relative="1" as="geometry" />
        </mxCell>
        <mxCell id="uOjIv8bpnz7_C93zKgDZ-82" style="edgeStyle=orthogonalEdgeStyle;rounded=0;orthogonalLoop=1;jettySize=auto;html=1;entryX=0;entryY=0.5;entryDx=0;entryDy=0;entryPerimeter=0;startArrow=blockThin;startFill=1;" edge="1" parent="1" source="uOjIv8bpnz7_C93zKgDZ-78" target="uOjIv8bpnz7_C93zKgDZ-80">
          <mxGeometry relative="1" as="geometry" />
        </mxCell>
        <mxCell id="uOjIv8bpnz7_C93zKgDZ-103" style="edgeStyle=orthogonalEdgeStyle;rounded=0;orthogonalLoop=1;jettySize=auto;html=1;startArrow=classic;startFill=1;endArrow=none;endFill=0;" edge="1" parent="1" source="uOjIv8bpnz7_C93zKgDZ-83">
          <mxGeometry relative="1" as="geometry">
            <mxPoint x="600" y="-620" as="targetPoint" />
          </mxGeometry>
        </mxCell>
        <mxCell id="uOjIv8bpnz7_C93zKgDZ-83" value="Lambda Function" style="sketch=0;points=[[0,0,0],[0.25,0,0],[0.5,0,0],[0.75,0,0],[1,0,0],[0,1,0],[0.25,1,0],[0.5,1,0],[0.75,1,0],[1,1,0],[0,0.25,0],[0,0.5,0],[0,0.75,0],[1,0.25,0],[1,0.5,0],[1,0.75,0]];outlineConnect=0;fontColor=#232F3E;fillColor=#ED7100;strokeColor=#ffffff;dashed=0;verticalLabelPosition=bottom;verticalAlign=top;align=center;html=1;fontSize=12;fontStyle=0;aspect=fixed;shape=mxgraph.aws4.resourceIcon;resIcon=mxgraph.aws4.lambda;" vertex="1" parent="1">
          <mxGeometry x="480" y="-760" width="78" height="78" as="geometry" />
        </mxCell>
        <mxCell id="uOjIv8bpnz7_C93zKgDZ-88" style="edgeStyle=orthogonalEdgeStyle;rounded=0;orthogonalLoop=1;jettySize=auto;html=1;exitX=1;exitY=0.75;exitDx=0;exitDy=0;exitPerimeter=0;entryX=0;entryY=0.75;entryDx=0;entryDy=0;entryPerimeter=0;" edge="1" parent="1" source="uOjIv8bpnz7_C93zKgDZ-79" target="uOjIv8bpnz7_C93zKgDZ-83">
          <mxGeometry relative="1" as="geometry" />
        </mxCell>
        <mxCell id="uOjIv8bpnz7_C93zKgDZ-89" value="" style="edgeStyle=orthogonalEdgeStyle;rounded=0;orthogonalLoop=1;jettySize=auto;html=1;exitX=0;exitY=0.25;exitDx=0;exitDy=0;exitPerimeter=0;entryX=1;entryY=0.25;entryDx=0;entryDy=0;entryPerimeter=0;" edge="1" parent="1" source="uOjIv8bpnz7_C93zKgDZ-83" target="uOjIv8bpnz7_C93zKgDZ-79">
          <mxGeometry relative="1" as="geometry" />
        </mxCell>
        <mxCell id="uOjIv8bpnz7_C93zKgDZ-90" value="" style="sketch=0;points=[[0,0,0],[0.25,0,0],[0.5,0,0],[0.75,0,0],[1,0,0],[0,1,0],[0.25,1,0],[0.5,1,0],[0.75,1,0],[1,1,0],[0,0.25,0],[0,0.5,0],[0,0.75,0],[1,0.25,0],[1,0.5,0],[1,0.75,0]];outlineConnect=0;fontColor=#232F3E;fillColor=#ED7100;strokeColor=#ffffff;dashed=0;verticalLabelPosition=bottom;verticalAlign=top;align=center;html=1;fontSize=12;fontStyle=0;aspect=fixed;shape=mxgraph.aws4.resourceIcon;resIcon=mxgraph.aws4.lambda;" vertex="1" parent="1">
          <mxGeometry x="480" y="-600" width="78" height="78" as="geometry" />
        </mxCell>
        <mxCell id="uOjIv8bpnz7_C93zKgDZ-100" style="edgeStyle=orthogonalEdgeStyle;rounded=0;orthogonalLoop=1;jettySize=auto;html=1;endArrow=none;endFill=0;" edge="1" parent="1" source="uOjIv8bpnz7_C93zKgDZ-91">
          <mxGeometry relative="1" as="geometry">
            <mxPoint x="600" y="-441" as="targetPoint" />
          </mxGeometry>
        </mxCell>
        <mxCell id="uOjIv8bpnz7_C93zKgDZ-91" value="" style="sketch=0;points=[[0,0,0],[0.25,0,0],[0.5,0,0],[0.75,0,0],[1,0,0],[0,1,0],[0.25,1,0],[0.5,1,0],[0.75,1,0],[1,1,0],[0,0.25,0],[0,0.5,0],[0,0.75,0],[1,0.25,0],[1,0.5,0],[1,0.75,0]];outlineConnect=0;fontColor=#232F3E;fillColor=#ED7100;strokeColor=#ffffff;dashed=0;verticalLabelPosition=bottom;verticalAlign=top;align=center;html=1;fontSize=12;fontStyle=0;aspect=fixed;shape=mxgraph.aws4.resourceIcon;resIcon=mxgraph.aws4.lambda;" vertex="1" parent="1">
          <mxGeometry x="480" y="-480" width="78" height="78" as="geometry" />
        </mxCell>
        <mxCell id="uOjIv8bpnz7_C93zKgDZ-99" style="edgeStyle=orthogonalEdgeStyle;rounded=0;orthogonalLoop=1;jettySize=auto;html=1;endArrow=none;endFill=0;" edge="1" parent="1">
          <mxGeometry relative="1" as="geometry">
            <mxPoint x="600" y="-570.8888888888889" as="targetPoint" />
            <mxPoint x="557" y="-301" as="sourcePoint" />
            <Array as="points">
              <mxPoint x="600" y="-301" />
              <mxPoint x="600" y="-430" />
            </Array>
          </mxGeometry>
        </mxCell>
        <mxCell id="uOjIv8bpnz7_C93zKgDZ-92" value="Multiple Lambda Functions" style="sketch=0;points=[[0,0,0],[0.25,0,0],[0.5,0,0],[0.75,0,0],[1,0,0],[0,1,0],[0.25,1,0],[0.5,1,0],[0.75,1,0],[1,1,0],[0,0.25,0],[0,0.5,0],[0,0.75,0],[1,0.25,0],[1,0.5,0],[1,0.75,0]];outlineConnect=0;fontColor=#232F3E;fillColor=#ED7100;strokeColor=#ffffff;dashed=0;verticalLabelPosition=bottom;verticalAlign=top;align=center;html=1;fontSize=12;fontStyle=0;aspect=fixed;shape=mxgraph.aws4.resourceIcon;resIcon=mxgraph.aws4.lambda;" vertex="1" parent="1">
          <mxGeometry x="480" y="-360" width="78" height="78" as="geometry" />
        </mxCell>
        <mxCell id="uOjIv8bpnz7_C93zKgDZ-93" style="edgeStyle=orthogonalEdgeStyle;rounded=0;orthogonalLoop=1;jettySize=auto;html=1;entryX=0;entryY=0.5;entryDx=0;entryDy=0;entryPerimeter=0;" edge="1" parent="1" source="uOjIv8bpnz7_C93zKgDZ-80" target="uOjIv8bpnz7_C93zKgDZ-90">
          <mxGeometry relative="1" as="geometry" />
        </mxCell>
        <mxCell id="uOjIv8bpnz7_C93zKgDZ-94" style="edgeStyle=orthogonalEdgeStyle;rounded=0;orthogonalLoop=1;jettySize=auto;html=1;entryX=0;entryY=0.5;entryDx=0;entryDy=0;entryPerimeter=0;" edge="1" parent="1" source="uOjIv8bpnz7_C93zKgDZ-80" target="uOjIv8bpnz7_C93zKgDZ-91">
          <mxGeometry relative="1" as="geometry" />
        </mxCell>
        <mxCell id="uOjIv8bpnz7_C93zKgDZ-95" style="edgeStyle=orthogonalEdgeStyle;rounded=0;orthogonalLoop=1;jettySize=auto;html=1;entryX=0;entryY=0.5;entryDx=0;entryDy=0;entryPerimeter=0;" edge="1" parent="1" source="uOjIv8bpnz7_C93zKgDZ-80" target="uOjIv8bpnz7_C93zKgDZ-92">
          <mxGeometry relative="1" as="geometry" />
        </mxCell>
        <mxCell id="uOjIv8bpnz7_C93zKgDZ-101" value="Routed &lt;br&gt;Lambda &lt;br&gt;Functions" style="edgeLabel;html=1;align=left;verticalAlign=middle;resizable=0;points=[];" vertex="1" connectable="0" parent="uOjIv8bpnz7_C93zKgDZ-95">
          <mxGeometry x="-0.8986" y="2" relative="1" as="geometry">
            <mxPoint x="-4" y="2" as="offset" />
          </mxGeometry>
        </mxCell>
        <mxCell id="uOjIv8bpnz7_C93zKgDZ-96" style="edgeStyle=orthogonalEdgeStyle;rounded=0;orthogonalLoop=1;jettySize=auto;html=1;entryX=0.5;entryY=0;entryDx=0;entryDy=0;entryPerimeter=0;" edge="1" parent="1" source="uOjIv8bpnz7_C93zKgDZ-90" target="uOjIv8bpnz7_C93zKgDZ-80">
          <mxGeometry relative="1" as="geometry">
            <Array as="points">
              <mxPoint x="600" y="-561" />
              <mxPoint x="600" y="-620" />
              <mxPoint x="359" y="-620" />
            </Array>
          </mxGeometry>
        </mxCell>
        <mxCell id="uOjIv8bpnz7_C93zKgDZ-162" style="edgeStyle=orthogonalEdgeStyle;rounded=0;orthogonalLoop=1;jettySize=auto;html=1;endArrow=none;endFill=0;" edge="1" parent="1" source="uOjIv8bpnz7_C93zKgDZ-159">
          <mxGeometry relative="1" as="geometry">
            <mxPoint x="600" y="-640.5" as="targetPoint" />
          </mxGeometry>
        </mxCell>
        <mxCell id="uOjIv8bpnz7_C93zKgDZ-159" value="&lt;div&gt;AWS ElastiCache&lt;/div&gt;" style="outlineConnect=0;dashed=0;verticalLabelPosition=bottom;verticalAlign=top;align=center;html=1;shape=mxgraph.aws3.elasticache;fillColor=#2E73B8;gradientColor=none;" vertex="1" parent="1">
          <mxGeometry x="700" y="-681" width="67.5" height="81" as="geometry" />
        </mxCell>
        <mxCell id="uOjIv8bpnz7_C93zKgDZ-163" style="edgeStyle=orthogonalEdgeStyle;rounded=0;orthogonalLoop=1;jettySize=auto;html=1;endArrow=none;endFill=0;" edge="1" parent="1" source="uOjIv8bpnz7_C93zKgDZ-160">
          <mxGeometry relative="1" as="geometry">
            <mxPoint x="600" y="-519" as="targetPoint" />
          </mxGeometry>
        </mxCell>
        <mxCell id="uOjIv8bpnz7_C93zKgDZ-160" value="AWS DynamoDB" style="sketch=0;points=[[0,0,0],[0.25,0,0],[0.5,0,0],[0.75,0,0],[1,0,0],[0,1,0],[0.25,1,0],[0.5,1,0],[0.75,1,0],[1,1,0],[0,0.25,0],[0,0.5,0],[0,0.75,0],[1,0.25,0],[1,0.5,0],[1,0.75,0]];outlineConnect=0;fontColor=#232F3E;fillColor=#C925D1;strokeColor=#ffffff;dashed=0;verticalLabelPosition=bottom;verticalAlign=top;align=center;html=1;fontSize=12;fontStyle=0;aspect=fixed;shape=mxgraph.aws4.resourceIcon;resIcon=mxgraph.aws4.dynamodb;" vertex="1" parent="1">
          <mxGeometry x="694.75" y="-558" width="78" height="78" as="geometry" />
        </mxCell>
        <mxCell id="uOjIv8bpnz7_C93zKgDZ-164" style="edgeStyle=orthogonalEdgeStyle;rounded=0;orthogonalLoop=1;jettySize=auto;html=1;endArrow=none;endFill=0;" edge="1" parent="1" source="uOjIv8bpnz7_C93zKgDZ-161">
          <mxGeometry relative="1" as="geometry">
            <mxPoint x="600" y="-399" as="targetPoint" />
          </mxGeometry>
        </mxCell>
        <mxCell id="uOjIv8bpnz7_C93zKgDZ-161" value="AWS Cognito" style="sketch=0;points=[[0,0,0],[0.25,0,0],[0.5,0,0],[0.75,0,0],[1,0,0],[0,1,0],[0.25,1,0],[0.5,1,0],[0.75,1,0],[1,1,0],[0,0.25,0],[0,0.5,0],[0,0.75,0],[1,0.25,0],[1,0.5,0],[1,0.75,0]];outlineConnect=0;fontColor=#232F3E;fillColor=#DD344C;strokeColor=#ffffff;dashed=0;verticalLabelPosition=bottom;verticalAlign=top;align=center;html=1;fontSize=12;fontStyle=0;aspect=fixed;shape=mxgraph.aws4.resourceIcon;resIcon=mxgraph.aws4.cognito;" vertex="1" parent="1">
          <mxGeometry x="694.75" y="-438" width="78" height="78" as="geometry" />
        </mxCell>
        <mxCell id="uOjIv8bpnz7_C93zKgDZ-166" value="&lt;ul&gt;&lt;li&gt;Date formatters&lt;/li&gt;&lt;li&gt;CSV/XSLX exporters&lt;/li&gt;&lt;li&gt;Image recognition&lt;/li&gt;&lt;li&gt;ChatGPT integration&lt;/li&gt;&lt;/ul&gt;" style="rounded=0;whiteSpace=wrap;html=1;align=left;" vertex="1" parent="1">
          <mxGeometry x="800" y="-770" width="180" height="110" as="geometry" />
        </mxCell>
        <mxCell id="uOjIv8bpnz7_C93zKgDZ-168" style="edgeStyle=orthogonalEdgeStyle;rounded=0;orthogonalLoop=1;jettySize=auto;html=1;entryX=1;entryY=0.25;entryDx=0;entryDy=0;entryPerimeter=0;startArrow=classic;startFill=1;" edge="1" parent="1" source="uOjIv8bpnz7_C93zKgDZ-166" target="uOjIv8bpnz7_C93zKgDZ-83">
          <mxGeometry relative="1" as="geometry" />
        </mxCell>
      </root>
    </mxGraphModel>
  </diagram>
</mxfile>
